<svg xmlns="http://www.w3.org/2000/svg" width="512" height="512" dominant-baseline="middle" text-anchor="middle">
   <style>
      .logo {
         transform: translate(-256px, -256px);
      }
   </style>
   <rect width="100%" height="100%" fill="#101823" />
   <svg xmlns="http://www.w3.org/2000/svg" width="512" height="512" x="50%" y="50%" class="logo">
      <path
         d="M383.713 126.64c-32.67-46.759-97.19-60.618-143.843-30.894l-81.933 52.219a93.997 93.997 0 00-42.465 62.96 98.993 98.993 0 009.762 63.553 94.257 94.257 0 00-14.061 35.129 100.17 100.17 0 0017.111 75.753c32.676 46.763 97.198 60.616 143.843 30.894l81.933-52.22a93.98 93.98 0 0042.465-62.96 99.032 99.032 0 00-9.754-63.554 94.238 94.238 0 0014.055-35.127 100.143 100.143 0 00-17.112-75.754"
         fill="#ff4654" />
      <path
         d="M231.866 389.76a65.081 65.081 0 01-69.853-25.892 60.23 60.23 0 01-10.292-45.557 57.135 57.135 0 011.958-7.65l1.542-4.706 4.198 3.083a105.686 105.686 0 0032.05 16.014l3.046.924-.28 3.039a18.368 18.368 0 003.304 12.182 19.598 19.598 0 0021.031 7.806 18.046 18.046 0 005.033-2.212l81.935-52.213a17.059 17.059 0 007.698-11.406 18.203 18.203 0 00-3.102-13.731 19.613 19.613 0 00-21.04-7.81 18.04 18.04 0 00-5.026 2.21l-31.266 19.93a59.787 59.787 0 01-16.637 7.307 65.081 65.081 0 01-69.852-25.893 60.226 60.226 0 01-10.293-45.556 56.507 56.507 0 0125.539-37.856l81.927-52.218a59.696 59.696 0 0116.65-7.315 65.081 65.081 0 0169.85 25.892 60.23 60.23 0 0110.293 45.557 57.8 57.8 0 01-1.958 7.65l-1.543 4.706-4.195-3.079a105.601 105.601 0 00-32.053-16.02l-3.045-.924.28-3.04a18.404 18.404 0 00-3.304-12.181 19.598 19.598 0 00-21.031-7.806 18.046 18.046 0 00-5.033 2.211l-81.935 52.216a17.031 17.031 0 00-7.692 11.403 18.176 18.176 0 003.096 13.733 19.613 19.613 0 0021.04 7.81 18.11 18.11 0 005.032-2.212l31.262-19.923a59.615 59.615 0 0116.635-7.312 65.081 65.081 0 0169.852 25.892 60.226 60.226 0 0110.293 45.556 56.536 56.536 0 01-25.539 37.862l-81.928 52.214a59.696 59.696 0 01-16.648 7.315"
         fill="#101823" />
   </svg>
</svg>